<?xml version="1.0" encoding="UTF-8"?>
<svg xmlns="http://www.w3.org/2000/svg" xmlns:xlink="http://www.w3.org/1999/xlink" viewBox="0 0 64 64" width="64px" height="64px">
<g id="surface31746192">
<path style=" stroke:none;fill-rule:nonzero;fill:rgb(25.098041%,21.568628%,20.784314%);fill-opacity:1;" d="M 24 2.890625 C 12.367188 2.890625 2.890625 12.367188 2.890625 24 C 2.890625 35.632812 12.367188 45.109375 24 45.109375 C 29.035156 45.109375 33.664062 43.332031 37.296875 40.371094 L 52.128906 58.953125 C 52.128906 58.953125 55.378906 59.4375 57.394531 57.332031 C 59.425781 55.214844 58.949219 52.132812 58.949219 52.132812 L 40.371094 37.296875 C 43.332031 33.664062 45.109375 29.035156 45.109375 24 C 45.109375 12.367188 35.632812 2.890625 24 2.890625 Z M 24 7.109375 C 33.351562 7.109375 40.890625 14.648438 40.890625 24 C 40.890625 33.351562 33.351562 40.890625 24 40.890625 C 14.648438 40.890625 7.109375 33.351562 7.109375 24 C 7.109375 14.648438 14.648438 7.109375 24 7.109375 Z M 24 7.109375 "/>
</g>
</svg>
